<svg width="201" height="321" viewBox="0 0 201 321" fill="none" xmlns="http://www.w3.org/2000/svg">
<mask id="mask0" mask-type="alpha" maskUnits="userSpaceOnUse" x="0" y="0" width="201" height="321">
<path d="M200.604 299.564L200.604 21.5641C200.604 9.96611 191.201 0.564087 179.604 0.564086L21.6035 0.564079C10.0055 0.564079 0.603515 9.9661 0.603515 21.5641L0.603503 299.564C0.603502 311.162 10.0055 320.564 21.6035 320.564L179.604 320.564C191.201 320.564 200.604 311.162 200.604 299.564Z" fill="white"/>
</mask>
<g mask="url(#mask0)">
<path d="M200.604 299.564L200.604 21.5641C200.604 9.96611 191.201 0.564087 179.604 0.564086L21.6035 0.564079C10.0055 0.564079 0.603515 9.9661 0.603515 21.5641L0.603503 299.564C0.603502 311.162 10.0055 320.564 21.6035 320.564L179.604 320.564C191.201 320.564 200.604 311.162 200.604 299.564Z" fill="url(#paint0_linear)"/>
<path style="mix-blend-mode:soft-light" opacity="0.5" fill-rule="evenodd" clip-rule="evenodd" d="M-7.77148 -10.6471C80.0132 19.1491 138.609 58.1244 168.015 106.279C197.421 154.433 209.456 225.632 204.12 319.874L-7.7715 319.874L-7.77148 -10.6471Z" fill="url(#paint1_linear)"/>
<path style="mix-blend-mode:soft-light" opacity="0.5" fill-rule="evenodd" clip-rule="evenodd" d="M-7.51758 62.5641C80.2671 92.3602 138.863 131.336 168.269 179.49C197.675 227.645 209.71 298.843 204.374 393.085L-7.51759 393.085L-7.51758 62.5641Z" fill="url(#paint2_linear)"/>
<path style="mix-blend-mode:multiply" opacity="0.5" fill-rule="evenodd" clip-rule="evenodd" d="M-7.51758 -4.26514C49.7849 -1.93217 68.2657 45.5869 47.9249 138.292C27.584 230.997 85.2816 294.028 221.018 327.383L-7.51759 335.79L-7.51758 -4.26514Z" fill="url(#paint3_linear)"/>
<path d="M151.887 25.3798L151.969 32.7293C152.015 36.8541 153.764 38.9846 157.039 38.9479L157.139 38.9468C159.539 38.9199 160.85 37.6552 161.299 35.325C161.896 37.3184 163.281 38.203 165.156 38.182L165.256 38.1808C168.306 38.1467 169.883 36.1039 169.839 32.2041L169.761 25.1796L151.887 25.3798ZM154.731 29.2982L159.856 29.2408L159.884 31.8156C159.909 34.0155 159.069 34.9249 157.419 34.9434L157.319 34.9446C155.694 34.9628 154.784 34.0729 154.762 32.073L154.731 29.2982ZM162.455 29.2117L167.03 29.1604L167.057 31.5603C167.078 33.4601 166.413 34.3176 164.913 34.3344L164.813 34.3356C163.213 34.3535 162.504 33.5864 162.483 31.6365L162.455 29.2117Z" fill="white"/>
<path d="M152.081 42.7141L152.124 46.5138L156.112 47.6942L156.185 54.1688L152.224 55.4383L152.271 59.663L170.08 53.6631L170.021 48.3885L152.081 42.7141ZM166.748 50.8253L159.05 53.2617L158.997 48.537L166.748 50.8253Z" fill="white"/>
<path d="M152.326 64.6059L152.367 68.2056L165.091 68.0631L152.45 75.6552L152.495 79.7049L170.369 79.5047L170.329 75.9049L158.555 76.0368L170.253 69.1053L170.2 64.4056L152.326 64.6059Z" fill="white"/>
<path d="M152.566 86.0498L152.612 90.0996L160.636 90.0097L152.681 96.2742L152.734 100.999L162.075 93.4688L170.629 100.448L170.581 96.1487L162.786 89.9856L170.486 89.8993L170.44 85.8496L152.566 86.0498Z" fill="white"/>
</g>
<path d="M39.5957 27.4921C39.5957 26.0521 38.5877 25.0441 37.1477 25.0441C35.6757 25.0441 34.6677 26.0521 34.6677 27.4921C34.6677 28.9641 35.6757 29.9721 37.1477 29.9721C38.5877 29.9721 39.5957 28.9641 39.5957 27.4921Z" fill="white"/>
<path d="M39.5957 38.7876C39.5957 37.3476 38.5877 36.3396 37.1477 36.3396C35.6757 36.3396 34.6677 37.3476 34.6677 38.7876C34.6677 40.2596 35.6757 41.2676 37.1477 41.2676C38.5877 41.2676 39.5957 40.2596 39.5957 38.7876Z" fill="white"/>
<path d="M39.5957 50.0831C39.5957 48.6431 38.5877 47.6351 37.1477 47.6351C35.6757 47.6351 34.6677 48.6431 34.6677 50.0831C34.6677 51.5551 35.6757 52.5631 37.1477 52.5631C38.5877 52.5631 39.5957 51.5551 39.5957 50.0831Z" fill="white"/>
<path d="M39.5957 61.3786C39.5957 59.9386 38.5877 58.9306 37.1477 58.9306C35.6757 58.9306 34.6677 59.9386 34.6677 61.3786C34.6677 62.8506 35.6757 63.8586 37.1477 63.8586C38.5877 63.8586 39.5957 62.8506 39.5957 61.3786Z" fill="white"/>
<path d="M31.4757 80.364C31.4757 79.052 31.9664 78.0494 32.9477 77.356C33.9291 76.6734 35.3584 76.332 37.2357 76.332C39.1131 76.332 40.5424 76.6734 41.5237 77.356C42.5157 78.0494 43.0117 79.052 43.0117 80.364C43.0117 81.676 42.5211 82.6734 41.5397 83.356C40.5584 84.0494 39.1291 84.396 37.2517 84.396C35.3637 84.396 33.9291 84.0494 32.9477 83.356C31.9664 82.6734 31.4757 81.676 31.4757 80.364ZM32.8037 80.364C32.8037 81.1854 33.1611 81.788 33.8757 82.172C34.5904 82.556 35.7157 82.748 37.2517 82.748C38.7771 82.748 39.8917 82.556 40.5957 82.172C41.3104 81.788 41.6677 81.1854 41.6677 80.364C41.6677 79.5427 41.3104 78.94 40.5957 78.556C39.8917 78.172 38.7771 77.98 37.2517 77.98C35.7264 77.98 34.6011 78.172 33.8757 78.556C33.1611 78.94 32.8037 79.5427 32.8037 80.364Z" fill="white"/>
<path d="M32.9637 95.4298L31.6037 95.4298L31.6037 88.0378L32.8357 88.0378L37.0917 91.9258C37.6357 92.4271 38.1317 92.7898 38.5797 93.0138C39.0277 93.2378 39.4704 93.3498 39.9077 93.3498C40.4837 93.3498 40.9211 93.1844 41.2197 92.8538C41.5184 92.5231 41.6677 92.0484 41.6677 91.4298C41.6677 90.3738 41.2571 89.3284 40.4357 88.2938L41.6517 87.7178C42.0677 88.1658 42.3984 88.7311 42.6437 89.4138C42.8891 90.0964 43.0117 90.7844 43.0117 91.4778C43.0117 92.5551 42.7397 93.4084 42.1957 94.0378C41.6624 94.6671 40.9371 94.9818 40.0197 94.9818C39.3691 94.9818 38.7504 94.8378 38.1637 94.5498C37.5771 94.2724 36.9211 93.8031 36.1957 93.1418L32.9637 90.1178L32.9637 95.4298Z" fill="white"/>
<path d="M32.9637 104.032L32.9637 106.512L31.6037 106.512L31.6037 99.9195L32.9637 99.9195L32.9637 102.384L40.9157 102.384L39.7157 100.416L40.9477 99.7115L42.8837 102.848L42.8837 104.032L32.9637 104.032Z" fill="white"/>
<path d="M32.9637 117.817L31.6037 117.817L31.6037 110.425L32.8357 110.425L37.0917 114.313C37.6357 114.815 38.1317 115.177 38.5797 115.401C39.0277 115.625 39.4704 115.737 39.9077 115.737C40.4837 115.737 40.921 115.572 41.2197 115.241C41.5184 114.911 41.6677 114.436 41.6677 113.817C41.6677 112.761 41.257 111.716 40.4357 110.681L41.6517 110.105C42.0677 110.553 42.3984 111.119 42.6437 111.801C42.8891 112.484 43.0117 113.172 43.0117 113.865C43.0117 114.943 42.7397 115.796 42.1957 116.425C41.6624 117.055 40.937 117.369 40.0197 117.369C39.369 117.369 38.7504 117.225 38.1637 116.937C37.577 116.66 36.921 116.191 36.1957 115.529L32.9637 112.505L32.9637 117.817Z" fill="white"/>
<defs>
<linearGradient id="paint0_linear" x1="0.603506" y1="320.564" x2="264.102" y2="187.367" gradientUnits="userSpaceOnUse">
<stop stop-color="#01ADEF"/>
<stop offset="1" stop-color="#0860BF"/>
</linearGradient>
<linearGradient id="paint1_linear" x1="142.503" y1="328.747" x2="-71.0478" y2="161.793" gradientUnits="userSpaceOnUse">
<stop stop-color="#EEEEEE"/>
<stop offset="1" stop-color="#D8D8D8" stop-opacity="0"/>
</linearGradient>
<linearGradient id="paint2_linear" x1="142.757" y1="401.958" x2="-70.7939" y2="235.004" gradientUnits="userSpaceOnUse">
<stop stop-color="#EEEEEE"/>
<stop offset="1" stop-color="#D8D8D8" stop-opacity="0"/>
</linearGradient>
<linearGradient id="paint3_linear" x1="153.626" y1="344.919" x2="-68.1104" y2="164.24" gradientUnits="userSpaceOnUse">
<stop stop-color="#EEEEEE"/>
<stop offset="1" stop-color="#D8D8D8" stop-opacity="0"/>
</linearGradient>
</defs>
</svg>
